<?xml version="1.0" encoding="UTF-8"?>
<svg version="1.1" xmlns="http://www.w3.org/2000/svg" width="280" height="280">
<path d="M0 0 C0.94641959 -0.00226556 1.89283919 -0.00453111 2.86793816 -0.00686532 C6.05309448 -0.01321754 9.23820839 -0.01237517 12.42337036 -0.0115509 C14.70138606 -0.01454163 16.97940125 -0.01794396 19.25741577 -0.02172852 C25.45572598 -0.03058147 31.65402239 -0.03290717 37.85233831 -0.0335443 C43.0215018 -0.03449242 48.19066205 -0.03816958 53.3598243 -0.0417164 C64.85561513 -0.04940005 76.35139806 -0.05238457 87.84719108 -0.05171105 C88.8821508 -0.05165111 88.8821508 -0.05165111 89.9380188 -0.05158997 C90.62883337 -0.05154909 91.31964794 -0.0515082 92.03139628 -0.05146609 C103.22786601 -0.05105961 114.4243021 -0.06062925 125.62076209 -0.07472833 C137.11424105 -0.08908735 148.60769925 -0.09581557 160.10118783 -0.09513456 C166.55509261 -0.0948792 173.00895935 -0.09775084 179.46285629 -0.10831261 C185.53175211 -0.11797274 191.60057334 -0.1180871 197.66947174 -0.11079597 C199.89915449 -0.10974754 202.12884184 -0.11212831 204.35851669 -0.11815643 C207.39795381 -0.12584269 210.43713121 -0.12125382 213.4765625 -0.11352539 C214.80569666 -0.12124074 214.80569666 -0.12124074 216.16168201 -0.12911195 C220.51493996 -0.10458555 223.90241452 0.09440562 227.86526489 2.13371277 C227.86526489 2.79371277 227.86526489 3.45371277 227.86526489 4.13371277 C228.66963989 4.25746277 228.66963989 4.25746277 229.49026489 4.38371277 C237.51688661 6.91843542 241.05490095 12.96472905 244.86526489 20.13371277 C246.97622068 25.2481073 247.14389211 29.69566138 247.10577393 35.13136292 C247.1083372 36.47437436 247.1083372 36.47437436 247.11095226 37.84451735 C247.11424124 40.83862146 247.10325313 43.83250047 247.09231567 46.82658386 C247.09175143 48.97522476 247.09206837 51.12386604 247.09320068 53.27250671 C247.09377469 59.10257777 247.08201251 64.9325666 247.06805277 70.76261854 C247.05555349 76.85649671 247.05437554 82.95037674 247.05200195 89.04426575 C247.04578484 100.58260627 247.02937085 112.1209089 247.00930297 123.65923274 C246.98695122 136.79575511 246.97595236 149.93227929 246.9659121 163.06881595 C246.94500485 190.09046923 246.90982433 217.11208887 246.86526489 244.13371277 C242.72099387 244.18348231 238.57688536 244.21960565 234.43240356 244.24357605 C233.02514614 244.25357834 231.61790919 244.26718455 230.21072388 244.28459167 C228.17755042 244.30909642 226.14465383 244.3202536 224.11135864 244.32902527 C222.89118042 244.3394989 221.6710022 244.34997253 220.41384888 244.36076355 C216.64172691 244.11941003 213.45786308 243.27773058 209.86526489 242.13371277 C208.20278322 241.78009776 206.5363573 241.44409809 204.86526489 241.13371277 C204.09827271 240.96871277 203.33128052 240.80371277 202.54104614 240.63371277 C194.53864586 238.94064296 187.2301416 237.78228651 179.08206177 238.90007019 C175.11940085 239.31772069 171.15700337 239.19652632 167.17776489 239.13371277 C162.22771407 239.05666918 157.72039028 239.07501422 152.86526489 240.13371277 C149.83888031 240.19810393 146.82892154 240.13297107 143.80276489 240.07121277 C141.01984726 240.13042378 138.58001613 240.56833428 135.86526489 241.13371277 C133.55276489 240.69621277 133.55276489 240.69621277 131.86526489 240.13371277 C131.86526489 240.79371277 131.86526489 241.45371277 131.86526489 242.13371277 C123.45494171 244.31540518 115.23520207 244.42779797 106.59182739 244.39933777 C105.13596533 244.40068794 103.6801037 244.4026314 102.22424316 244.40513611 C99.19356943 244.40806519 96.16301454 244.40385802 93.13235474 244.39445496 C89.25202925 244.38300012 85.37197866 244.38967167 81.49166298 244.40159988 C78.49422125 244.40882649 75.49684479 244.40652794 72.49940109 244.4013443 C71.0680882 244.40001319 69.63676932 244.40163662 68.20546341 244.40630341 C66.21006638 244.41138828 64.21464843 244.40226254 62.2192688 244.39250183 C61.08583038 244.39091064 59.95239197 244.38931946 58.78460693 244.38768005 C55.93612257 244.13987701 54.27778596 243.61448984 51.86526489 242.13371277 C51.86526489 241.47371277 51.86526489 240.81371277 51.86526489 240.13371277 C50.67223755 240.38314636 50.67223755 240.38314636 49.45510864 240.63761902 C44.27284733 241.35377483 39.1616947 241.14208448 33.94143677 241.00675964 C28.83817866 240.9375215 24.78049932 241.59770201 19.86526489 243.13371277 C8.13324696 244.62662261 -4.73947774 245.73221509 -16.13473511 242.13371277 C-20.19404023 240.9309557 -24.20912679 239.8866964 -28.36129761 239.07121277 C-29.25671265 238.89461121 -30.15212769 238.71800964 -31.07467651 238.53605652 C-31.75449585 238.40328308 -32.43431519 238.27050964 -33.13473511 238.13371277 C-33.22817931 210.36977735 -33.29871484 182.60586551 -33.3419838 154.8418045 C-33.36260838 141.95044701 -33.39072718 129.05918723 -33.43649292 116.16789246 C-33.47636363 104.93175202 -33.50216867 93.69568235 -33.51108909 82.45947313 C-33.51630338 76.51005321 -33.5285571 70.56083575 -33.55765533 64.61148071 C-33.58482789 59.01040618 -33.59317626 53.40961731 -33.58716583 47.80848312 C-33.58826523 45.75420453 -33.59620797 43.69991628 -33.61155701 41.64569473 C-33.63151352 38.83678631 -33.62665351 36.02895069 -33.61575317 33.22001648 C-33.62740454 32.41065628 -33.63905591 31.60129607 -33.65106034 30.7674098 C-33.55366283 21.4562307 -28.94432408 15.36658941 -22.88473511 8.63371277 C-15.66865295 2.07363808 -9.7058904 -0.01687782 0 0 Z " fill="#E86C0B" transform="translate(33.134735107421875,-0.1337127685546875)"/>
<path d="M0 0 C7.61865388 7.13976707 11.24502844 16.52511217 15 26.0625 C15.86745021 28.25300483 16.74228224 30.44060292 17.625 32.625 C18.00914063 33.59566406 18.39328125 34.56632812 18.7890625 35.56640625 C19.95676365 37.97337732 21.05218216 39.28287813 23 41.0625 C23.4021875 42.0215625 23.4021875 42.0215625 23.8125 43 C27.03372685 48.59476243 34.52070726 50.94013836 40.26953125 53.0703125 C44.44645444 54.18124286 48.25739873 54.61067596 52.5625 54.6875 C53.24103027 54.71038086 53.91956055 54.73326172 54.61865234 54.75683594 C58.08059658 54.70302783 59.72706306 54.30658622 62.328125 51.98046875 C64.26111732 48.60676486 65.24365991 45.52150794 66.1875 41.75 C66.35838135 41.08282959 66.5292627 40.41565918 66.70532227 39.72827148 C67.54279602 36.36071517 68.18937459 33.08497101 68.4375 29.625 C69.18266201 24.90564061 70.85310555 21.64600546 74 18.0625 C79.99963793 14.06274138 86.97331211 14.3552386 94 15.0625 C94.63035156 15.39378906 95.26070312 15.72507812 95.91015625 16.06640625 C98.48707582 17.29465763 100.76501497 17.25710311 103.58520508 17.2878418 C110.73425127 17.36927336 117.08496092 18.28626186 123.8125 20.75 C124.80685059 21.09756348 124.80685059 21.09756348 125.82128906 21.45214844 C130.53802323 23.32076658 132.76157016 25.54656548 135 30.0625 C135.390625 33.0546875 135.390625 33.0546875 135.25 35.9375 C135.21390625 36.90429688 135.1778125 37.87109375 135.140625 38.8671875 C135.09421875 39.59164062 135.0478125 40.31609375 135 41.0625 C134.16597656 41.02769531 133.33195313 40.99289063 132.47265625 40.95703125 C125.22992009 40.78280736 119.68506854 41.38112635 113 44.0625 C110.65208135 44.79388041 108.30008501 45.50978623 105.9453125 46.21875 C103.62763351 47.22400836 102.53244122 48.04427049 101 50.0625 C99.98348175 52.9066219 99.98348175 52.9066219 99.1875 56.125 C95.46175892 68.82639004 88.20231696 79.29832425 76.5546875 85.8125 C68.88165365 89.56688965 61.27328865 91.20246678 52.7265625 91.16015625 C51.57285156 91.15693359 50.41914063 91.15371094 49.23046875 91.15039062 C48.04066406 91.14201172 46.85085937 91.13363281 45.625 91.125 C44.41199219 91.12048828 43.19898438 91.11597656 41.94921875 91.11132812 C38.96609493 91.09958354 35.98307321 91.0831584 33 91.0625 C33.03708944 114.68423507 33.03708944 114.68423507 43 135.0625 C43.27868358 137.24653107 43.5216511 139.43513402 43.75 141.625 C44.9547556 151.85795512 48.06620756 161.55583493 52 171.0625 C44.95027079 172.14744835 38.01512801 172.22382287 30.890625 172.23046875 C29.64625671 172.23379715 28.40188843 172.23712555 27.11981201 172.24055481 C24.50093962 172.24559956 21.88206084 172.2479639 19.26318359 172.24780273 C16.58049859 172.24772096 13.89798248 172.25474745 11.21533203 172.26831055 C7.33620992 172.28657473 3.45728572 172.2915359 -0.421875 172.29296875 C-1.62293884 172.30015427 -2.82400269 172.30733978 -4.0614624 172.31474304 C-5.17652161 172.31166641 -6.29158081 172.30858978 -7.44042969 172.30541992 C-8.42001648 172.30684494 -9.39960327 172.30826996 -10.40887451 172.30973816 C-13.07645625 172.05520475 -14.71565885 171.42384499 -17 170.0625 C-17 169.4025 -17 168.7425 -17 168.0625 C-18.19302734 168.31193359 -18.19302734 168.31193359 -19.41015625 168.56640625 C-24.59241756 169.28256206 -29.70357019 169.07087171 -34.92382812 168.93554688 C-40.02708623 168.86630874 -44.08476557 169.52648924 -49 171.0625 C-60.73201794 172.55540985 -73.60474264 173.66100233 -85 170.0625 C-89.05930512 168.85974293 -93.07439168 167.81548363 -97.2265625 167 C-98.12197754 166.82339844 -99.01739258 166.64679688 -99.93994141 166.46484375 C-100.61976074 166.33207031 -101.29958008 166.19929687 -102 166.0625 C-102.18704681 149.75519013 -102.3280346 133.44822923 -102.41449738 117.14010525 C-102.45571446 109.56756629 -102.51188606 101.99569459 -102.60351562 94.42358398 C-102.68336099 87.82214199 -102.73489059 81.22118328 -102.75270796 74.61927181 C-102.76312062 71.12467133 -102.78751174 67.63145315 -102.84584045 64.13729668 C-102.91049332 60.23246628 -102.91191242 56.32897665 -102.90820312 52.42358398 C-102.93696533 51.27055786 -102.96572754 50.11753174 -102.99536133 48.92956543 C-102.91611954 41.22101578 -102.91611954 41.22101578 -100.24967957 37.84906197 C-98.2441063 36.09523479 -96.17774974 34.59181292 -94 33.0625 C-88.69913919 27.05538678 -84.50666229 20.94072672 -81.82421875 13.37890625 C-79.81038846 7.71918415 -77.13545621 2.46475984 -73 -1.9375 C-68.92053426 -3.29732191 -65.26165767 -3.57966759 -61 -2.9375 C-56.4053813 0.00999124 -53.79466232 3.43384052 -51 8.0625 C-50.525625 8.84109375 -50.05125 9.6196875 -49.5625 10.421875 C-47.23440524 14.26323136 -44.96163672 18.11829889 -42.8125 22.0625 C-41.17531082 25.25280213 -41.17531082 25.25280213 -38 27.0625 C-35.42010176 27.11430768 -35.42010176 27.11430768 -33 26.0625 C-31.54509803 24.02743476 -31.54509803 24.02743476 -30.625 21.375 C-30.21507813 20.39015625 -29.80515625 19.4053125 -29.3828125 18.390625 C-28.92648438 17.29234375 -28.47015625 16.1940625 -28 15.0625 C-26.8754794 12.56207964 -25.69699537 10.09140799 -24.5 7.625 C-23.9534375 6.47128906 -23.406875 5.31757812 -22.84375 4.12890625 C-20.32263935 -0.06404261 -17.80151829 -2.43920771 -13.0625 -3.75 C-7.5275473 -4.08887466 -4.34498642 -3.51068295 0 0 Z " fill="#FEFDFD" transform="translate(102,71.9375)"/>
<path d="M0 0 C3.65324658 0.99071094 5.31082154 2.17286645 8.05981445 4.67578125 C14.50409391 9.91858488 23.20061714 11.20554987 31.125 12.6875 C32.19298828 12.89955078 33.26097656 13.11160156 34.36132812 13.33007812 C40.78634899 14.5742636 47.16314639 15.48633603 53.6875 16 C52.46534174 18.4712363 51.19929454 20.89223756 49.875 23.3125 C47.25618337 28.47225024 45.70029652 33.99146016 44.03125 39.51171875 C42.67717268 43.026809 41.11998221 45.16693044 38.6875 48 C36.81336269 51.03598567 36.52016873 52.96413425 36.75 56.5 C36.88616835 62.66388738 35.30372213 68.09762017 33.6875 74 C33.30127424 75.70583043 32.92502823 77.4139766 32.5625 79.125 C31.6875 83 31.6875 83 30.6875 85 C31.6775 85.33 32.6675 85.66 33.6875 86 C22.30802699 89.79315767 6.11413155 89.60840996 -5.3125 86 C-9.37180512 84.79724293 -13.38689168 83.75298363 -17.5390625 82.9375 C-18.43447754 82.76089844 -19.32989258 82.58429688 -20.25244141 82.40234375 C-20.93226074 82.26957031 -21.61208008 82.13679688 -22.3125 82 C-22.38859679 74.82843832 -22.44111962 67.65698086 -22.47729492 60.48510742 C-22.49237654 58.04561472 -22.51284469 55.6061491 -22.53881836 53.16674805 C-22.57522812 49.65927441 -22.59223289 46.15215946 -22.60546875 42.64453125 C-22.62095261 41.55477493 -22.63643646 40.46501862 -22.65238953 39.34223938 C-22.65445706 30.02912234 -22.65445706 30.02912234 -19.3125 26 C-18.82910156 25.34257812 -18.34570312 24.68515625 -17.84765625 24.0078125 C-17.36167969 23.38648438 -16.87570313 22.76515625 -16.375 22.125 C-12.2682465 16.69676642 -9.21553904 11.30136349 -7.12109375 4.796875 C-5.43658228 1.05351619 -4.13804865 0 0 0 Z " fill="#E6660C" transform="translate(22.3125,156)"/>
<path d="M0 0 C2.3733664 1.57426321 4.08193244 2.9100685 6.0625 4.875 C6.84173828 5.62330078 6.84173828 5.62330078 7.63671875 6.38671875 C16.14311472 14.82899616 20.03459335 24.93281359 23.21484375 36.30078125 C23.42810303 37.05544678 23.6413623 37.8101123 23.86108398 38.58764648 C24.27789621 40.07985655 24.68293782 41.57541938 25.07446289 43.07446289 C26.31621806 47.56781362 27.84512675 50.4562557 31 54 C33.77764309 58.92807646 35.756359 63.95601842 37.62890625 69.28515625 C37.85807739 69.93230591 38.08724854 70.57945557 38.32336426 71.24621582 C38.88400423 72.83018821 39.44224636 74.41500896 40 76 C32.63723408 76.0463682 25.27449971 76.08189196 17.91161728 76.10362434 C14.49262072 76.11405552 11.07372416 76.12820243 7.65478516 76.15087891 C3.722994 76.17679333 -0.20875685 76.18647832 -4.140625 76.1953125 C-5.97986542 76.21079636 -5.97986542 76.21079636 -7.85626221 76.22659302 C-8.99714294 76.22674408 -10.13802368 76.22689514 -11.31347656 76.22705078 C-12.81905121 76.23371262 -12.81905121 76.23371262 -14.3550415 76.24050903 C-17.05678178 75.99483677 -18.6918686 75.3835511 -21 74 C-21 73.34 -21 72.68 -21 72 C-21.78375 72.165 -22.5675 72.33 -23.375 72.5 C-30.33049504 73.45937863 -37.09647953 73.20061226 -44 72 C-43.64030182 62.53993775 -42.03358908 54.52338515 -35.9375 47.0625 C-32.28116956 42.55456854 -31.1730881 37.59789408 -30 32 C-29.34 32 -28.68 32 -28 32 C-27.91105469 31.30390625 -27.82210937 30.6078125 -27.73046875 29.890625 C-26.83385456 26.34252607 -25.27107122 23.83894661 -23.3125 20.75 C-22.95236816 20.18152344 -22.59223633 19.61304688 -22.22119141 19.02734375 C-21.15343566 17.34774928 -20.07685021 15.67377822 -19 14 C-18.45472656 13.11828125 -17.90945312 12.2365625 -17.34765625 11.328125 C-12.86068086 4.23465728 -9.17229556 -1.05908921 0 0 Z " fill="#E6630D" transform="translate(106,168)"/>
<path d="M0 0 C1.65 0 3.3 0 5 0 C5 0.33 5 0.66 5 1 C3.35 1 1.7 1 0 1 C0 0.67 0 0.34 0 0 Z " fill="#784C13" transform="translate(61,241)"/>
<path d="M0 0 C2 1 2 1 2 1 Z " fill="#7F4000" transform="translate(240,241)"/>
<path d="M0 0 C2 1 2 1 2 1 Z " fill="#6F4000" transform="translate(166,241)"/>
<path d="M0 0 C2 1 2 1 2 1 Z " fill="#6F4000" transform="translate(14,241)"/>
<path d="" fill="#7F4000" transform="translate(0,0)"/>
<path d="" fill="#FF8000" transform="translate(0,0)"/>
<path d="" fill="#7F4000" transform="translate(0,0)"/>
</svg>
